<svg width="13" height="13" viewBox="0 0 13 13" fill="none" xmlns="http://www.w3.org/2000/svg">
<path d="M0 0H13V13H0V0Z" fill="white"/>
<path d="M4.276 4.252V3.916H6.508V4.9C6.996 4.164 7.576 3.796 8.248 3.796C8.496 3.796 8.736 3.876 8.968 4.036C9.2 4.188 9.392 4.476 9.544 4.9L8.476 5.476C8.364 5.148 8.232 4.928 8.08 4.816C7.936 4.696 7.78 4.636 7.612 4.636C7.436 4.636 7.264 4.692 7.096 4.804C6.928 4.916 6.756 5.124 6.58 5.428V8.992C6.58 9.264 6.592 9.428 6.616 9.484C6.64 9.532 6.716 9.564 6.844 9.58L7.744 9.664V10H4.276V9.664L4.936 9.58C5.064 9.564 5.14 9.532 5.164 9.484C5.188 9.428 5.2 9.264 5.2 8.992V4.924C5.2 4.652 5.188 4.492 5.164 4.444C5.14 4.388 5.064 4.352 4.936 4.336L4.276 4.252Z" fill="black"/>
</svg>
